<svg xmlns="http://www.w3.org/2000/svg" width="500" height="500" viewBox="0 0 500 500" version="1.1">
	<path d="M 280.500 37.924 L 278.500 38.730 280.500 39.208 C 282.287 39.634, 282.207 39.806, 279.750 40.818 C 278.238 41.441, 277 42.657, 277 43.521 C 277 44.763, 276.294 44.958, 273.615 44.456 C 271.371 44.035, 269.966 44.245, 269.450 45.080 C 268.901 45.969, 269.162 46.152, 270.336 45.701 C 271.552 45.235, 272 45.611, 272 47.099 C 272 48.686, 272.445 48.994, 274.020 48.494 C 276.161 47.814, 284.330 50.053, 289.750 52.804 C 293.070 54.490, 304.126 66.160, 305.249 69.164 C 305.603 70.109, 304.548 73.454, 302.806 76.914 C 300.379 81.734, 298.521 83.834, 293.882 87.001 C 290.659 89.200, 287.204 91, 286.202 91 C 285.201 91, 283.509 91.661, 282.441 92.468 C 281.374 93.276, 278.613 93.951, 276.307 93.968 C 271.207 94.007, 269.309 91.809, 268.377 84.786 C 267.743 80.002, 267.741 80, 263.858 80 C 261.721 80, 259.129 79.473, 258.098 78.829 C 256.590 77.887, 255.234 78.083, 251.176 79.829 C 248.400 81.023, 245.374 82, 244.452 82 C 242.753 82, 238.051 85.370, 233.173 90.084 C 227.928 95.153, 223.891 95.983, 221.061 92.573 C 220.233 91.575, 220.245 90.556, 221.108 88.662 C 222.359 85.917, 227.528 83.427, 228.548 85.077 C 228.882 85.619, 230.223 85.183, 231.632 84.075 C 233.003 82.996, 235.707 81.592, 237.640 80.954 L 241.156 79.793 238.328 78.317 C 234.927 76.541, 229.518 77.185, 223.941 80.030 C 221.418 81.317, 220.255 82.502, 220.610 83.425 C 221.283 85.179, 219.342 89, 217.779 89 C 217.147 89, 215.700 88.147, 214.564 87.106 C 213.429 86.064, 210.588 84.899, 208.250 84.518 C 204.555 83.915, 203.989 84.064, 203.919 85.662 C 203.858 87.030, 203.532 86.811, 202.641 84.804 C 201.854 83.031, 201.014 82.373, 200.188 82.884 C 198.847 83.712, 199.598 87, 201.128 87 C 201.631 87, 202.555 88.123, 203.180 89.496 C 204.120 91.558, 204.002 92.340, 202.504 93.996 C 199.664 97.134, 198.401 96.484, 198.819 92.100 C 199.168 88.446, 198.998 88.158, 196.112 87.525 C 194.419 87.153, 192.837 86.995, 192.597 87.174 C 192.357 87.353, 190.975 86.386, 189.525 85.024 C 187.904 83.501, 187.125 83.162, 187.502 84.144 C 187.875 85.117, 187.481 85.985, 186.494 86.364 C 185.603 86.706, 185.114 87.376, 185.409 87.852 C 185.917 88.674, 178.337 92.424, 176.750 92.136 C 176.338 92.061, 176 92.477, 176 93.059 C 176 93.641, 175.570 93.852, 175.044 93.527 C 174.518 93.202, 174.341 92.275, 174.651 91.468 C 175.547 89.132, 172.444 89.729, 170.584 92.250 C 169.586 93.602, 168.723 94.052, 168.421 93.377 C 168.103 92.668, 166.183 92.440, 163.209 92.758 C 158.416 93.271, 155.640 94.609, 156.497 95.995 C 157.057 96.901, 148.996 99.116, 147.810 98.383 C 145.771 97.122, 147.375 95.997, 151.250 95.970 C 154.613 95.946, 155.136 95.727, 153.756 94.923 C 152.797 94.365, 150.210 94.115, 148.006 94.368 C 145.803 94.621, 144 94.435, 144 93.954 C 144 93.474, 142.651 93.175, 141.002 93.290 C 139.353 93.406, 138.003 94.063, 138.002 94.750 C 138.001 95.438, 137.587 96, 137.082 96 C 136.577 96, 135.374 96.303, 134.408 96.674 C 133.048 97.196, 132.799 96.965, 133.304 95.650 C 133.828 94.286, 133.617 94.135, 132.227 94.878 C 131.277 95.387, 130.151 95.825, 129.724 95.853 C 128.237 95.950, 119 101.323, 119 102.092 C 119 102.517, 118.179 103.126, 117.176 103.444 C 116.173 103.762, 114.486 104.805, 113.426 105.761 C 110.577 108.332, 100.173 116, 99.534 116 C 99.231 116, 99.273 113.525, 99.629 110.500 C 100.078 106.677, 99.928 105, 99.138 105 C 98.455 105, 98 106.812, 98 109.532 C 98 115.384, 96.106 119.738, 91.886 123.590 C 86.706 128.317, 78.093 137.790, 72.091 145.361 C 67.530 151.114, 66.534 151.918, 65.734 150.490 C 64.569 148.407, 68.746 138.069, 73.783 130.569 C 78.058 124.205, 90.603 109.600, 95.669 105.089 C 99.933 101.293, 113.385 92.012, 114.674 91.978 C 115.128 91.966, 116.625 91.042, 118 89.925 C 119.702 88.543, 118.449 88.902, 114.077 91.049 C 110.544 92.784, 107.024 94.833, 106.255 95.602 C 104.280 97.577, 103.780 97.344, 104.423 94.750 C 104.730 93.513, 104.732 93.037, 104.426 93.694 C 104.121 94.350, 103.333 94.681, 102.676 94.429 C 101.561 94.001, 89.615 104.985, 84 111.601 C 68.231 130.182, 56.519 150.170, 47.648 173.638 C 32.617 213.404, 30.283 255.046, 40.537 300.500 C 43.961 315.676, 47.359 325.309, 55.002 341.505 C 67.302 367.567, 80.970 386.350, 101.543 405.460 C 114.453 417.453, 115.636 418.357, 139.257 434.292 C 150.621 441.957, 173.432 451.427, 196 457.849 C 213.386 462.796, 248.055 466.632, 260 464.930 C 263.025 464.499, 268.027 464.113, 271.116 464.073 C 288.536 463.847, 325.975 452.824, 348 441.438 C 356.591 436.996, 358.054 436.080, 377.066 423.235 C 389.363 414.926, 412.843 392.382, 423.137 379 C 442.520 353.804, 458.085 317.882, 463.434 286 C 465.785 271.985, 466.207 260.420, 465.021 242.500 C 461.600 190.803, 447.241 152.351, 417.525 115.309 C 390.123 81.152, 357.639 58.798, 314 44.068 C 300.857 39.631, 283.953 36.531, 280.500 37.924 M 272.158 52 C 272.158 53.375, 272.385 53.938, 272.662 53.250 C 272.940 52.563, 272.940 51.438, 272.662 50.750 C 272.385 50.063, 272.158 50.625, 272.158 52 M 316 59 C 316 59.550, 316.675 60, 317.500 60 C 318.325 60, 319 59.550, 319 59 C 319 58.450, 318.325 58, 317.500 58 C 316.675 58, 316 58.450, 316 59 M 303.247 60.250 C 303.930 62.316, 308.513 64.402, 310.593 63.593 C 312.404 62.889, 312.381 62.754, 310.139 60.926 C 307.475 58.753, 302.593 58.274, 303.247 60.250 M 190 65.167 C 190 65.625, 190.423 66, 190.941 66 C 191.459 66, 192.114 65.625, 192.397 65.167 C 192.680 64.708, 192.257 64.333, 191.456 64.333 C 190.655 64.333, 190 64.708, 190 65.167 M 316.666 69.427 C 315.928 71.351, 317.741 72.679, 322.261 73.524 C 324.330 73.910, 326.273 74.633, 326.580 75.130 C 327.347 76.371, 329 75.207, 329 73.426 C 329 69.828, 317.894 66.227, 316.666 69.427 M 188.507 71.989 C 188.157 72.555, 188.558 72.723, 189.448 72.382 C 191.180 71.717, 191.497 71, 190.059 71 C 189.541 71, 188.843 71.445, 188.507 71.989 M 182.368 73.214 C 182.100 73.646, 182.782 74, 183.882 74 C 184.982 74, 186.100 73.646, 186.368 73.214 C 186.635 72.782, 185.953 72.429, 184.853 72.429 C 183.753 72.429, 182.635 72.782, 182.368 73.214 M 306.200 74.200 C 303.987 76.413, 304.961 77.482, 312.250 80.844 C 318.795 83.862, 319.986 84.105, 324.500 83.344 C 328.459 82.676, 329.500 82.103, 329.500 80.591 C 329.500 79.087, 327.707 78.079, 321.045 75.841 C 311.867 72.757, 308.064 72.336, 306.200 74.200 M 283 76.551 C 283 78.626, 288.805 80.951, 292.311 80.281 C 294.927 79.781, 294.719 79.579, 289.311 77.376 C 282.405 74.563, 283 74.641, 283 76.551 M 190.074 77.877 C 188.740 78.250, 187.465 79.105, 187.241 79.778 C 186.631 81.606, 188.474 81.254, 191.139 79.033 C 193.699 76.901, 193.672 76.872, 190.074 77.877 M 198.459 80.067 C 198.096 80.653, 198.014 81.348, 198.276 81.610 C 198.538 81.872, 199.019 81.392, 199.345 80.543 C 200.021 78.781, 199.445 78.471, 198.459 80.067 M 115.306 82.560 C 113.263 84.425, 113.066 84.847, 114.582 84.115 C 116.657 83.113, 119.756 80, 118.678 80 C 118.367 80, 116.849 81.152, 115.306 82.560 M 301.607 81.582 C 300.514 84.430, 300.918 84.915, 308.657 90.040 C 316.747 95.398, 317.952 95.380, 317.985 89.905 C 318.002 86.913, 316.198 85.086, 310.290 82.117 C 305.278 79.597, 302.436 79.422, 301.607 81.582 M 333.352 84.987 C 334.192 89.214, 336.268 91.495, 338.496 90.640 C 340.927 89.707, 339.961 87.104, 336.080 84.125 L 332.660 81.500 333.352 84.987 M 110.211 86.601 C 109.501 87.370, 109.362 88, 109.902 88 C 110.940 88, 112.443 86.098, 111.850 85.534 C 111.658 85.351, 110.920 85.831, 110.211 86.601 M 294.973 88.668 C 293.613 89.586, 292.368 90.430, 292.207 90.545 C 292.045 90.660, 299.849 98.716, 309.548 108.449 C 326.325 125.285, 327.272 126.064, 329.024 124.479 C 330.892 122.788, 330.757 121.277, 328.403 117.500 C 327.717 116.400, 326.438 112.992, 325.559 109.927 C 324.511 106.272, 322.850 103.320, 320.731 101.346 C 316.370 97.286, 300.721 87, 298.903 87 C 298.101 87, 296.332 87.751, 294.973 88.668 M 106.667 89.667 C 105.711 90.622, 105.845 92, 106.893 92 C 107.384 92, 108.045 91.325, 108.362 90.500 C 108.947 88.976, 107.881 88.452, 106.667 89.667 M 191.200 94.200 C 190.540 94.860, 190 96.135, 190 97.033 C 190 99.322, 188.902 100.164, 187.469 98.974 C 186.060 97.805, 183 98.708, 183 100.293 C 183 100.886, 183.963 102.396, 185.139 103.648 L 187.279 105.926 189.795 103.947 C 193.500 101.032, 196.939 96.004, 196.323 94.400 C 195.665 92.684, 192.827 92.573, 191.200 94.200 M 210.180 95.217 C 210.406 96.782, 211.529 97.719, 214 98.405 C 218.316 99.604, 218.370 99.682, 221.603 109.500 C 223.996 116.764, 226.363 121.088, 227.319 119.940 C 228.169 118.921, 233.007 102.332, 232.989 100.500 C 232.949 96.484, 231.567 95.705, 225.387 96.218 C 220.862 96.593, 218.879 96.288, 216.529 94.854 C 212.294 92.272, 209.777 92.416, 210.180 95.217 M 281.585 94.314 C 279.895 95.550, 280.003 95.954, 283.393 101.064 C 285.377 104.054, 287.833 107.625, 288.853 109 C 290.449 111.153, 294.452 117.388, 298.805 124.500 C 299.478 125.600, 300.480 127.634, 301.032 129.021 C 302.929 133.786, 304.877 134.093, 313.876 131.042 C 318.382 129.514, 322.308 128.026, 322.600 127.734 C 323.843 126.490, 300.038 101.430, 291.934 95.451 C 288.257 92.739, 284.330 92.307, 281.585 94.314 M 140.500 95 C 140.160 95.550, 140.359 96, 140.941 96 C 141.523 96, 142 95.550, 142 95 C 142 94.450, 141.802 94, 141.559 94 C 141.316 94, 140.840 94.450, 140.500 95 M 101.609 95.824 C 101.256 96.395, 101.455 97.163, 102.050 97.531 C 103.536 98.449, 104.062 97.719, 103.071 96.114 C 102.539 95.255, 102.024 95.152, 101.609 95.824 M 274.500 98 C 274.160 98.550, 274.104 99.360, 274.376 99.799 C 275.440 101.522, 275.974 114.898, 275.002 115.499 C 273.803 116.240, 273.644 122, 274.823 122 C 276.230 122, 280.228 131.019, 279.706 133.015 C 279.434 134.055, 279.773 135.674, 280.459 136.612 C 281.541 138.093, 282.872 138.228, 290.576 137.636 C 295.454 137.261, 299.839 136.561, 300.319 136.081 C 301.369 135.031, 298.608 128.861, 296.055 126.550 C 294.382 125.036, 293.995 125.070, 290.664 127.035 L 287.076 129.152 286.457 126.685 C 286.029 124.980, 284.936 124.037, 282.919 123.634 C 281.314 123.313, 280 122.645, 280 122.150 C 280 121.133, 284.808 120, 289.125 120 C 290.706 120, 291.981 119.662, 291.958 119.250 C 291.805 116.518, 278.136 97, 276.375 97 C 275.684 97, 274.840 97.450, 274.500 98 M 333 99.031 C 333 100.149, 333.675 101.322, 334.500 101.638 C 335.325 101.955, 336 103.212, 336 104.433 C 336 107.008, 339.303 110.413, 343.250 111.909 C 347.302 113.444, 346.872 110.853, 342.250 105.874 C 340.188 103.652, 337.923 100.747, 337.218 99.417 C 335.658 96.476, 333 96.233, 333 99.031 M 128.500 98.944 C 124.072 100.189, 117.631 104.258, 107.500 112.209 C 98.030 119.641, 97.746 119.959, 98.471 122.342 C 98.832 123.529, 99.325 126.525, 99.567 129 L 100.006 133.500 98.548 130.500 C 97.746 128.850, 97.070 126.263, 97.045 124.750 C 97.020 123.237, 96.592 122, 96.094 122 C 94.613 122, 80.865 137.726, 72.646 148.821 C 67.524 155.735, 65 160.040, 65 161.861 C 65 165.903, 67.893 176.298, 69.457 177.874 C 70.611 179.038, 71.063 178.778, 72.409 176.176 C 73.283 174.486, 75.375 171.063, 77.058 168.569 C 78.741 166.076, 81.943 160.540, 84.173 156.268 C 89.341 146.369, 103.033 130.301, 110.430 125.454 C 111.790 124.563, 113.867 121.734, 115.046 119.167 C 116.343 116.345, 119.963 111.905, 124.204 107.935 C 131.016 101.560, 132.850 97.721, 128.500 98.944 M 244.385 104.216 C 242.798 105.434, 241.203 106.857, 240.841 107.377 C 240.479 107.898, 239.054 107.013, 237.676 105.412 C 236.298 103.810, 235.007 102.725, 234.808 103 C 234.609 103.275, 233.696 106.489, 232.779 110.142 C 231.862 113.795, 230.228 118.745, 229.148 121.142 C 228.068 123.539, 226.476 128.780, 225.611 132.790 C 223.915 140.649, 218.372 154.561, 212.779 165 C 209.550 171.026, 209.012 171.536, 205.398 172 C 201.633 172.483, 201.495 172.636, 201.349 176.500 C 201.265 178.700, 201.409 179.488, 201.668 178.250 C 202.497 174.291, 204.303 175.706, 203.743 179.876 C 203.188 184.019, 198.195 196, 197.024 196 C 196.637 196, 195.808 194.875, 195.182 193.500 C 194.256 191.467, 193.328 191, 190.213 191 C 186.011 191, 184.232 192.092, 181.657 196.250 C 180.434 198.225, 179.138 199, 177.059 199 C 172.166 199, 171.203 199.925, 168.381 207.336 C 166.880 211.276, 164.943 215.048, 164.076 215.718 C 163.128 216.451, 159.092 216.949, 153.941 216.968 C 142.431 217.011, 141.615 217.673, 141.383 227.146 C 141.150 236.651, 139.946 245.915, 138.857 246.588 C 138.386 246.880, 138 248.024, 138 249.132 C 138 250.513, 137.450 251.040, 136.250 250.807 C 134.767 250.520, 134.470 249.175, 134.304 241.984 C 134.196 237.318, 134.083 233.017, 134.054 232.427 C 133.997 231.302, 122.007 226, 119.519 226 C 118.658 226, 117.645 227.711, 117.005 230.250 C 116.415 232.588, 115.003 237.145, 113.866 240.379 C 111.523 247.042, 111.089 246.319, 120.275 251.068 C 125.450 253.744, 141.898 259.587, 149.340 261.394 C 152.139 262.073, 152.175 262.025, 151.840 258.071 C 151.370 252.528, 153.382 252.440, 154 257.977 C 154.471 262.194, 154.751 262.546, 158.822 264.045 C 162.410 265.366, 162.897 265.840, 161.693 266.839 C 160.645 267.709, 159.498 267.760, 157.557 267.021 C 153.431 265.453, 152 265.769, 151.996 268.250 C 151.991 271.130, 147.277 295.469, 145.894 299.750 C 144.316 304.638, 143 303.665, 143 297.611 C 143 292.241, 142.988 292.220, 139.487 291.563 C 137.554 291.201, 133.012 289.576, 129.393 287.952 C 125.774 286.328, 122.608 285, 122.356 285 C 121.180 285, 119 292.401, 119 296.391 C 119 301.990, 122.734 307, 126.907 307 C 129.451 307, 138 312.510, 138 314.149 C 138 314.545, 137.551 316.051, 137.002 317.495 C 135.851 320.523, 134 319.963, 134 316.587 C 134 314.220, 129.905 309, 128.048 309 C 127.471 309, 127 310.125, 127 311.500 C 127 312.875, 126.609 314, 126.130 314 C 125.047 314, 113.735 300.553, 112.853 298.215 C 112.496 297.272, 111.697 294.608, 111.076 292.295 C 109.897 287.905, 105.394 281.638, 104.026 282.484 C 102.290 283.557, 98.127 323.608, 99.617 324.898 C 100.738 325.868, 120.586 333.637, 124.250 334.539 C 127.263 335.282, 127.639 336.575, 125.615 339.241 C 124.364 340.888, 124.202 340.881, 122.599 339.110 C 121.022 337.367, 101.583 329, 99.112 329 C 97.693 329, 97.655 328.234, 99.995 346.463 C 102.581 366.605, 103.399 370.011, 106.188 372.273 C 107.762 373.550, 108.101 374.310, 107.250 374.657 C 106.563 374.937, 105.953 376.817, 105.896 378.833 L 105.792 382.500 104.357 377.819 C 103.032 373.496, 102.369 372.835, 95.680 369.163 C 91.697 366.977, 85.354 363.121, 81.586 360.594 C 77.818 358.067, 74.401 356, 73.993 356 C 72.827 356, 77.236 367.285, 79.939 371.217 C 83.464 376.346, 104.706 389.951, 106.466 388.207 C 106.858 387.818, 108.151 388.711, 109.340 390.191 C 110.880 392.109, 114.226 393.780, 121 396.015 C 126.225 397.738, 133.989 400.554, 138.252 402.272 C 144.063 404.613, 146.291 405.109, 147.147 404.253 C 148.989 402.411, 146.209 397.164, 141.634 393.850 C 137.944 391.177, 137 390.956, 130.380 391.210 C 123.773 391.463, 120.829 390.837, 122.198 389.469 C 122.490 389.177, 130.315 388.653, 139.587 388.304 C 155.133 387.720, 156.594 387.503, 158.355 385.526 C 160.014 383.663, 177.251 350.125, 209.152 286.688 L 218.109 268.876 243.304 269.188 L 268.500 269.500 274 272.599 C 279.802 275.868, 285.551 282.438, 288.998 289.739 C 291.914 295.915, 291.635 297.483, 287.426 298.574 C 283.197 299.670, 283.241 301.463, 287.500 301.588 C 293.860 301.773, 294.848 302.837, 290.500 304.818 C 288.838 305.575, 288 306.767, 288 308.372 C 288 311.681, 285.188 312.624, 284.072 309.690 C 283.597 308.440, 282.508 306.837, 281.652 306.126 C 279.768 304.563, 276 305.550, 276 307.607 C 276 309.891, 272.093 317, 270.839 317 C 270.059 317, 269.877 319.548, 270.241 325.382 C 270.529 329.992, 270.448 334.275, 270.062 334.900 C 268.852 336.858, 262.843 338, 253.757 338 C 247.385 338, 245 337.657, 245 336.741 C 245 336.049, 247.080 331.436, 249.623 326.491 C 267.290 292.128, 273.804 278.653, 273.337 277.437 C 273.043 276.669, 271.331 275.131, 269.533 274.020 C 266.518 272.157, 264.590 272, 244.767 272 C 224.731 272, 223.096 272.137, 220.708 274.015 C 217.859 276.256, 166 379.466, 166 382.895 C 166 383.990, 167 385.587, 168.223 386.443 C 171.444 388.700, 262.169 388.759, 274.931 386.513 C 279.569 385.697, 283.581 385.248, 283.848 385.515 C 284.115 385.782, 283.567 386, 282.631 386 C 281.562 386, 280.199 387.703, 278.964 390.583 C 275.686 398.230, 276.293 399, 285.596 399 C 290.653 399, 291.167 398.775, 293.011 395.750 C 294.191 393.815, 294.994 393.162, 294.996 394.135 C 295 395.959, 299.577 399.379, 300.911 398.555 C 302.329 397.679, 303.078 387.852, 302.156 382.229 L 301.292 376.957 308.396 371.602 C 312.303 368.656, 317.771 363.828, 320.548 360.873 C 325.870 355.208, 334.926 340.295, 337.540 332.890 C 340.407 324.771, 343 310.651, 343 303.163 C 343 295.982, 342.632 293.851, 339.343 282 C 336.912 273.241, 327.292 252.741, 302.974 204.500 C 290.498 179.750, 279.005 156.575, 277.435 153 C 275.864 149.425, 274.291 146.275, 273.939 146 C 272.371 144.774, 270.941 140.761, 271.474 139.081 C 271.845 137.912, 271.474 137.012, 270.460 136.623 C 269.580 136.285, 265.782 129.594, 262.021 121.754 C 252.195 101.274, 250.461 99.549, 244.385 104.216 M 206.750 105.080 C 205.787 105.641, 204.330 107.395, 203.511 108.979 C 201.686 112.508, 199.148 113.411, 194.593 112.153 C 192.060 111.454, 190.645 111.539, 189.375 112.468 C 187.794 113.624, 188.022 113.989, 191.816 116.384 C 196.907 119.598, 197.333 121.502, 192.750 120.557 C 182.547 118.453, 182.369 118.485, 179.427 122.931 C 176.774 126.939, 176.751 127.099, 178.598 128.497 C 179.644 129.289, 181.348 129.951, 182.384 129.968 C 183.420 129.986, 186.072 130.540, 188.277 131.201 C 192.240 132.388, 192.321 132.360, 195.411 128.679 L 198.537 124.955 201.769 129.159 C 203.546 131.472, 205 133.723, 205 134.161 C 205 135.753, 213.300 139.183, 216.142 138.766 C 217.714 138.535, 219 138.774, 219 139.296 C 219 139.818, 219.623 139.728, 220.385 139.095 C 222.016 137.742, 225.327 125.338, 224.441 123.904 C 224.106 123.362, 223.023 123.175, 222.034 123.489 C 220.918 123.844, 220.005 123.456, 219.625 122.466 C 218.699 120.053, 216.754 121.882, 217.421 124.540 C 218.275 127.944, 216.431 132, 214.028 132 C 212.916 132, 210.283 130.444, 208.178 128.542 C 206.073 126.640, 203.190 124.642, 201.772 124.103 L 199.193 123.123 202.987 119.135 C 207.354 114.543, 210 109.719, 210 106.346 C 210 103.777, 209.393 103.540, 206.750 105.080 M 235.891 132.250 C 229.521 145.037, 218.552 166.890, 211.515 180.811 C 202.669 198.312, 199.042 206.442, 199.760 207.160 C 200.859 208.259, 240.342 208.525, 242.088 207.445 C 242.611 207.123, 244.190 204.586, 245.597 201.808 C 247.272 198.502, 248.496 197.096, 249.139 197.739 C 250.680 199.280, 259.212 218.272, 259.364 220.500 C 259.498 222.474, 258.983 222.496, 220 222.164 C 198.275 221.978, 173.188 222.139, 164.250 222.520 L 148 223.213 148 226.061 C 148 229.713, 151.880 240.414, 155.354 246.341 C 157.747 250.425, 160.592 253.249, 168.844 259.729 L 171.187 261.570 155.736 292.535 C 147.238 309.566, 139.565 324.850, 138.685 326.500 C 137.805 328.150, 131.619 340.525, 124.938 354 C 118.257 367.475, 112.388 378.927, 111.895 379.450 C 111.403 379.972, 111 380.985, 111 381.700 C 111 382.726, 115.061 382.975, 130.250 382.882 C 140.838 382.817, 150.768 382.479, 152.318 382.132 C 155.787 381.354, 154.616 383.424, 174.468 343 C 196.722 297.688, 214.288 263.948, 216.048 263.136 C 216.847 262.768, 229.425 262.703, 244 262.992 C 272.975 263.568, 270.810 263.145, 281.250 270.256 C 289.440 275.835, 295.569 285.788, 297.988 297.440 C 300.431 309.211, 296.174 321.878, 286.554 331.458 C 276.345 341.625, 266.128 345, 245.558 345 C 236.545 345, 236 344.881, 236 342.921 C 236 340.747, 259.198 292.980, 264.240 284.772 C 265.838 282.171, 266.876 279.608, 266.547 279.076 C 266.187 278.493, 257.535 278.187, 244.725 278.305 L 223.500 278.500 205.359 314.500 C 175.466 373.819, 171.936 381.087, 172.540 382.064 C 172.885 382.624, 191.952 383, 219.962 383 C 262.104 383, 267.761 382.808, 276.309 381.088 C 288.169 378.703, 292.731 376.697, 302.085 369.757 C 326.007 352.006, 338.320 327.545, 336.676 301.037 C 335.893 288.417, 335.381 286.726, 332.769 288.124 C 331.368 288.873, 330.958 288.877, 331.416 288.136 C 331.777 287.551, 331.157 286.157, 330.036 285.036 C 328.916 283.916, 328 282.550, 328 282 C 328 281.450, 327.571 281, 327.047 281 C 326.523 281, 325.232 279.087, 324.179 276.750 C 323.126 274.413, 321.080 271.150, 319.633 269.500 C 318.186 267.850, 317.002 266.144, 317.001 265.708 C 317.001 265.273, 316.100 263.950, 315 262.770 C 313.900 261.589, 313 260.006, 313 259.252 C 313 258.499, 312.550 258.160, 312 258.500 C 311.440 258.846, 311 258.068, 311 256.730 C 311 255.417, 309.602 252.232, 307.893 249.653 C 305.359 245.827, 305.013 244.689, 306.016 243.481 C 307.008 242.285, 306.956 242, 305.744 242 C 304.918 242, 303.697 240.682, 303.030 239.072 C 302.363 237.461, 301.191 235.903, 300.425 235.610 C 299.656 235.314, 299.297 234.388, 299.624 233.538 C 299.948 232.692, 299.778 232, 299.246 232 C 298.112 232, 294 221.716, 294 218.880 C 294 217.811, 293.369 216.695, 292.598 216.399 C 291.827 216.104, 290.887 214.205, 290.509 212.181 C 290.131 210.156, 289.361 207.943, 288.799 207.263 C 288.236 206.582, 288.037 205.345, 288.357 204.513 C 288.713 203.586, 288.369 203, 287.469 203 C 286.661 203, 286 202.325, 286 201.500 C 286 200.675, 286.761 200, 287.691 200 C 289.168 200, 289.137 199.810, 287.441 198.500 C 285.533 197.026, 285.532 196.975, 287.408 195.524 C 289.107 194.210, 289.468 194.238, 290.713 195.774 C 291.962 197.316, 291.994 197.260, 291.015 195.241 C 290.175 193.508, 289.363 193.122, 287.530 193.582 C 285.457 194.102, 285.215 193.893, 285.709 192.006 C 286.126 190.410, 286.492 190.178, 287.084 191.137 C 287.528 191.855, 288.119 192.215, 288.397 191.937 C 288.988 191.346, 284.856 182.658, 283.750 182.167 C 283.337 181.983, 283 181.376, 283 180.818 C 283 179.649, 281.829 177.021, 273.946 160.500 C 258.614 128.369, 248.950 109, 248.248 109 C 247.822 109, 242.261 119.463, 235.891 132.250 M 348.012 112.977 C 346.525 115.756, 348.768 120.540, 353.839 125.409 C 357.280 128.713, 358.150 129.120, 359.455 128.037 C 361.843 126.056, 361.318 123.413, 357.406 117.727 C 352.389 110.434, 350.016 109.234, 348.012 112.977 M 172.594 121.896 C 170.913 123.754, 170.466 126, 171.777 126 C 173.003 126, 177 122.977, 177 122.050 C 177 120.308, 174.123 120.207, 172.594 121.896 M 339.679 123.710 C 338.448 125.703, 348.336 134, 351.942 134 C 353.672 134, 353.833 133.709, 352.914 132.250 C 351.663 130.265, 344.275 124.426, 341.824 123.486 C 340.932 123.144, 339.967 123.244, 339.679 123.710 M 394.507 125.989 C 393.721 127.261, 396.543 132, 398.086 132 C 399.859 132, 398.679 125.550, 396.843 125.203 C 395.932 125.030, 394.881 125.384, 394.507 125.989 M 329.240 127.326 C 327.473 128.307, 327.244 128.844, 328.190 129.790 C 329.056 130.656, 329.076 131, 328.259 131 C 327.631 131, 326.857 130.577, 326.537 130.060 C 326.185 129.490, 324.879 129.469, 323.228 130.006 C 321.728 130.493, 317.238 131.835, 313.250 132.988 C 308.973 134.225, 306 135.626, 306 136.404 C 306 137.130, 308.618 143.298, 311.819 150.112 C 315.019 156.925, 319.358 166.887, 321.461 172.250 C 323.565 177.613, 325.657 182, 326.112 182 C 327.577 182, 342.338 177.041, 347.733 174.736 C 350.611 173.506, 352.974 171.897, 352.983 171.160 C 353.010 169.064, 348.786 166.070, 345.750 166.033 C 342.583 165.995, 342.359 165.366, 344.619 162.869 C 345.654 161.725, 346.017 160.205, 345.627 158.651 C 344.817 155.421, 341.987 154.333, 341.294 156.985 C 340.535 159.886, 339.100 158.483, 336.318 152.122 C 333.804 146.372, 330.743 143.062, 327.905 143.022 C 325.642 142.991, 322.645 139.369, 323.353 137.522 C 323.681 136.668, 325.038 135.556, 326.369 135.050 C 327.701 134.543, 328.958 133.626, 329.163 133.011 C 329.594 131.718, 332.010 133.925, 335.308 138.624 C 347.197 155.567, 349.375 156.557, 349.724 145.175 L 349.948 137.875 345.224 133.198 C 342.522 130.523, 338.788 127.988, 336.500 127.276 C 331.685 125.777, 332.034 125.774, 329.240 127.326 M 165.053 128.436 C 164.185 129.482, 164.152 130.416, 164.931 131.870 C 165.519 132.969, 166.036 134.911, 166.079 136.184 C 166.129 137.658, 166.355 137.955, 166.700 137 C 167.260 135.452, 170.035 129.078, 170.727 127.750 C 171.452 126.358, 166.256 126.987, 165.053 128.436 M 403.208 130.007 C 399.048 134.473, 398.440 136.805, 400.459 140.554 C 402.696 144.708, 404.907 144.933, 407.221 141.244 C 408.168 139.735, 409.497 137.742, 410.175 136.815 C 411.162 135.467, 411.125 134.602, 409.993 132.488 C 407.835 128.455, 405.462 127.588, 403.208 130.007 M 172.724 131.250 C 171.812 131.938, 170.353 134.227, 169.483 136.337 C 167.784 140.457, 168.171 141.634, 172.371 145.128 C 174.171 146.625, 174.224 147.127, 173.038 151.366 C 171.994 155.091, 171.989 156.560, 173.010 159.025 C 174.781 163.301, 176.324 162.258, 177.548 155.957 C 178.529 150.905, 178.814 150.518, 182.024 149.861 C 187.101 148.823, 189.026 145.868, 188.658 139.680 L 188.352 134.538 181.926 132.295 C 174.286 129.629, 174.797 129.687, 172.724 131.250 M 329 137.465 C 329 138.745, 331.829 141, 333.434 141 C 334.848 141, 333.800 137.963, 332.066 137.035 C 329.492 135.658, 329 135.726, 329 137.465 M 293.521 139.594 C 290.233 140.399, 287.134 141.466, 286.634 141.966 C 286.090 142.510, 288.738 149.011, 293.241 158.187 C 297.374 166.609, 301.969 176.090, 303.453 179.255 C 304.936 182.420, 307.058 185.496, 308.168 186.090 C 310.117 187.133, 311.189 187.019, 319.196 184.921 L 322.892 183.952 320.376 177.226 C 317.334 169.095, 307.232 145.672, 304.968 141.500 C 303.031 137.930, 301.417 137.661, 293.521 139.594 M 205.250 139.662 C 204.563 139.940, 204 141.029, 204 142.083 C 204 143.538, 204.709 144, 206.941 144 C 210.611 144, 211.901 142.132, 209.462 140.348 C 207.504 138.917, 207.214 138.870, 205.250 139.662 M 216.667 142.667 C 215.663 143.671, 215.866 150, 216.902 150 C 218.050 150, 219.833 144.904, 219.264 143.250 C 218.791 141.877, 217.701 141.632, 216.667 142.667 M 324.369 146.212 C 323.376 147.818, 323.819 153.793, 325.109 156.203 C 326.500 158.803, 330.400 158.204, 330.809 155.327 C 331.152 152.922, 327.492 145, 326.039 145 C 325.532 145, 324.781 145.545, 324.369 146.212 M 58.515 154.970 C 55.572 160.779, 52.658 168.991, 53.309 169.643 C 53.558 169.892, 55.295 168.305, 57.168 166.116 C 60.480 162.248, 64.445 152.529, 63.401 150.839 C 62.292 149.046, 60.936 150.193, 58.515 154.970 M 403.736 157.598 C 402.751 158.582, 404.135 161.276, 407.667 165.253 C 410.731 168.703, 412.129 173, 410.187 173 C 409.740 173, 408.081 171.650, 406.500 170 C 404.919 168.350, 403.113 167, 402.487 167 C 401.861 167, 400.345 165.932, 399.119 164.627 C 396.693 162.044, 389.324 158.343, 388.416 159.251 C 388.106 159.561, 388.580 161.221, 389.469 162.941 C 390.551 165.033, 392.071 166.264, 394.064 166.663 C 397.713 167.393, 398.244 168.187, 398.193 172.843 C 398.164 175.444, 399.795 179.533, 403.840 187 C 409.379 197.226, 409.625 197.508, 413.272 197.811 C 417.824 198.189, 418.817 196.482, 416.572 192.140 C 415.708 190.468, 415 188.435, 415 187.623 C 415 185.745, 420.435 183, 424.154 183 C 426.439 183, 427 182.556, 427 180.750 C 426.999 177.681, 417.042 164.577, 414.426 164.204 C 413.286 164.040, 410.887 162.353, 409.095 160.454 C 405.837 156.999, 404.856 156.477, 403.736 157.598 M 420.148 160.129 C 418.960 163.340, 419.594 165.011, 423.890 169.999 C 426.649 173.203, 428.107 174.173, 429.410 173.673 C 431.002 173.062, 430.781 172.264, 427.222 165.790 C 422.852 157.843, 421.418 156.695, 420.148 160.129 M 58.192 168.754 C 56.535 171.364, 54.460 175.252, 53.581 177.394 C 52.057 181.104, 52.094 181.621, 54.372 188.394 C 57.300 197.100, 63.050 208.304, 67.002 213 L 69.946 216.500 69.973 211.940 C 69.988 209.433, 70.930 203.703, 72.067 199.208 C 74.065 191.307, 74.074 190.934, 72.346 188.008 C 71.362 186.343, 70.095 185.122, 69.529 185.295 C 68.963 185.468, 67.306 187.994, 65.847 190.907 C 62.793 197.008, 60.247 200.163, 61.889 195.812 C 62.447 194.334, 64.050 190.862, 65.451 188.096 C 68.495 182.089, 68.599 180.103, 66.122 175.210 C 65.089 173.170, 63.930 170.043, 63.545 168.261 C 63.161 166.480, 62.477 164.795, 62.025 164.515 C 61.573 164.236, 59.848 166.144, 58.192 168.754 M 373.750 167.080 C 372.788 167.641, 372 168.752, 372 169.550 C 372 170.347, 371.058 171.942, 369.908 173.092 C 368.573 174.427, 368.012 175.937, 368.358 177.262 C 368.657 178.405, 368.397 181.227, 367.780 183.535 C 366.780 187.272, 366.922 188.263, 369.079 192.615 C 370.410 195.302, 372.205 197.630, 373.066 197.788 C 373.928 197.946, 378.078 195.359, 382.290 192.038 C 386.502 188.717, 390.336 186, 390.810 186 C 391.285 186, 392.965 188.588, 394.543 191.750 C 396.122 194.912, 397.800 197.770, 398.272 198.099 C 399.878 199.221, 404 197.796, 404 196.120 C 404 194.622, 397.619 184.188, 395.976 183 C 395.595 182.725, 394.391 180.466, 393.300 177.979 C 390.737 172.142, 388.526 170, 385.063 170 C 383.527 170, 381.126 169.100, 379.727 168 C 376.856 165.742, 376.217 165.643, 373.750 167.080 M 378 172.374 C 378 173.194, 379.062 175.960, 380.359 178.520 C 382.152 182.055, 382.874 182.772, 383.362 181.499 C 383.741 180.512, 383.181 178.774, 382.003 177.276 C 380.901 175.876, 380 174.143, 380 173.424 C 380 172.706, 379.550 171.840, 379 171.500 C 378.450 171.160, 378 171.553, 378 172.374 M 74.096 177.149 C 72.030 179.761, 71.820 180.700, 72.596 183.844 C 73.093 185.855, 73.948 187.500, 74.495 187.500 C 75.042 187.500, 76.219 184.800, 77.110 181.500 C 79.350 173.205, 78.354 171.767, 74.096 177.149 M 348.745 178.083 C 347.780 178.645, 342.897 180.627, 337.894 182.486 C 332.892 184.346, 328.560 186.107, 328.268 186.399 C 327.976 186.691, 330.453 195.158, 333.772 205.215 C 337.092 215.272, 340.591 226.334, 341.549 229.798 C 343.284 236.072, 343.302 236.093, 346.395 235.426 C 355.698 233.422, 356.458 232.858, 357.086 227.499 C 357.409 224.750, 358.141 221.375, 358.712 220 C 359.284 218.625, 360.072 215.156, 360.464 212.291 C 361.150 207.272, 361.082 207.059, 358.588 206.433 C 357.165 206.075, 354.873 206.066, 353.496 206.412 C 351.222 206.982, 350.753 206.511, 348.380 201.270 C 346.943 198.096, 345.745 194.282, 345.717 192.793 C 345.689 191.304, 345.067 189.856, 344.333 189.574 C 342.593 188.907, 342.629 186.229, 344.401 184.456 C 345.172 183.685, 347.702 182.628, 350.022 182.106 C 354.727 181.049, 356.561 179.717, 355.554 178.087 C 354.715 176.730, 351.072 176.728, 348.745 178.083 M 436 183.333 C 436 184.067, 437.399 185.979, 439.109 187.583 C 446.035 194.082, 448.215 196.690, 450.061 200.689 C 452.042 204.980, 453.660 206.673, 454.746 205.588 C 456.136 204.197, 448.725 192.318, 441.827 184.882 C 439.027 181.863, 436 181.059, 436 183.333 M 48.159 187.087 C 43.511 199.345, 43.041 204.308, 45.530 214.867 C 47.911 224.966, 48.486 225.377, 51.311 219 C 52.651 215.975, 54.559 211.210, 55.551 208.411 L 57.355 203.323 54.024 194.911 C 50.035 184.837, 49.356 183.931, 48.159 187.087 M 317.500 187.929 C 312.824 189.057, 310 190.906, 310 192.839 C 310 193.812, 311.418 196.834, 313.151 199.554 C 317.514 206.404, 326.519 224.664, 328.045 229.755 C 328.739 232.072, 330.025 234.600, 330.903 235.373 C 333.052 237.263, 339 238.504, 339 237.061 C 339 234.123, 331.388 208.298, 326.381 194.250 C 323.664 186.626, 323.470 186.488, 317.500 187.929 M 74.467 200.040 C 73.967 200.843, 73.062 205.174, 72.457 209.666 C 71.570 216.244, 71.619 218.333, 72.710 220.416 C 73.455 221.837, 74.433 223, 74.884 223 C 76.057 223, 77.140 205.076, 76.181 201.540 C 75.555 199.233, 75.177 198.902, 74.467 200.040 M 293.016 200.500 C 293.012 201.050, 294.131 203.714, 295.504 206.419 C 296.877 209.125, 298 210.634, 298 209.772 C 298 208.909, 296.880 206.246, 295.512 203.852 C 294.144 201.458, 293.021 199.950, 293.016 200.500 M 364.716 204.904 C 362.489 208.673, 362.549 210, 364.944 210 C 367.844 210, 372.467 205.659, 371.699 203.658 C 370.653 200.932, 366.639 201.649, 364.716 204.904 M 59.281 207.861 C 57.864 208.786, 52.830 221.847, 52.264 226.065 C 51.941 228.480, 52.444 230.938, 53.801 233.577 C 56.037 237.922, 66.900 250, 68.572 250 C 69.602 250, 72.664 241.549, 75.204 231.698 C 76.439 226.909, 76.435 226.891, 73.271 224.415 C 71.527 223.050, 67.886 218.623, 65.180 214.577 C 62.474 210.531, 59.819 207.509, 59.281 207.861 M 40.778 208.561 C 38.018 213.074, 36.621 260.432, 38.848 274 C 39.605 278.612, 39.771 278.918, 39.875 275.896 C 40.071 270.250, 43.870 246.372, 46.036 237.180 C 47.607 230.508, 47.761 228.429, 46.809 226.680 C 46.157 225.481, 44.662 220.702, 43.487 216.061 C 42.313 211.419, 41.094 208.044, 40.778 208.561 M 245.909 211.346 C 243.488 213.481, 242.347 213.644, 228.422 213.852 C 215.008 214.052, 210.237 214.793, 212.672 216.297 C 213.870 217.037, 250.812 217.521, 251.527 216.806 C 252.065 216.268, 249.501 208.958, 248.801 209.032 C 248.635 209.049, 247.334 210.091, 245.909 211.346 M 298.525 211.960 C 297.677 213.332, 298.428 214.362, 299.905 213.854 C 300.511 213.646, 300.588 212.940, 300.093 212.143 C 299.468 211.137, 299.063 211.090, 298.525 211.960 M 204.494 214.839 C 204.222 215.111, 204 215.708, 204 216.167 C 204 217.286, 209.736 217.237, 210.431 216.112 C 211.004 215.185, 205.359 213.975, 204.494 214.839 M 300.564 216.293 C 300.940 217.279, 301.499 217.834, 301.807 217.526 C 302.115 217.219, 301.808 216.412, 301.124 215.733 C 300.136 214.753, 300.022 214.868, 300.564 216.293 M 101.774 221.066 C 100.825 221.620, 98.542 225.130, 96.701 228.868 L 93.353 235.663 99.876 240.024 C 109.397 246.388, 109.965 246.209, 112.654 236 C 115.492 225.221, 115.507 223.469, 112.777 221.557 C 110.278 219.806, 104.387 219.544, 101.774 221.066 M 48.576 235.250 C 48.322 236.488, 47.632 239.750, 47.042 242.500 C 45.516 249.613, 43 269.596, 43 274.600 C 43 278.197, 43.873 279.994, 48.863 286.663 C 55.718 295.826, 60.513 300.597, 61.408 299.149 C 61.753 298.590, 62.468 292.591, 62.997 285.817 C 63.834 275.079, 65.993 260.876, 67.543 255.894 C 67.853 254.899, 66.228 252.382, 63.272 249.278 C 60.647 246.523, 56.700 241.755, 54.500 238.682 C 52.300 235.610, 50.171 233.074, 49.769 233.048 C 49.367 233.022, 48.830 234.012, 48.576 235.250 M 353 235.902 C 352.175 236.365, 349.766 237.055, 347.646 237.437 L 343.792 238.130 344.453 242.815 C 345.770 252.154, 347.015 253.294, 349.473 247.411 C 350.298 245.436, 352.104 242.477, 353.486 240.834 C 357.103 236.535, 356.829 233.754, 353 235.902 M 337.567 241.788 C 336.892 243.915, 340.355 254.285, 341.913 254.804 C 343.380 255.293, 343.324 254.804, 340.473 242.250 C 339.860 239.551, 338.353 239.311, 337.567 241.788 M 92.431 242.112 C 91.652 243.371, 91.699 252.476, 92.497 254.989 C 93.083 256.836, 99.905 261, 102.344 261 C 103.208 261, 105.114 258.955, 106.579 256.455 C 109.029 252.276, 109.380 252.034, 110.950 253.455 C 111.889 254.305, 113.185 255, 113.829 255 C 116.381 255, 115.553 259.373, 111.918 265.088 C 107.696 271.725, 107.998 274.452, 113.250 277.110 C 115.588 278.293, 118.686 280.096, 120.135 281.117 C 123.370 283.395, 142.799 290.014, 144.422 289.391 C 145.982 288.793, 147.998 275.883, 146.778 274.310 C 146.270 273.656, 144.880 272.981, 143.688 272.810 C 142.455 272.634, 141.364 271.638, 141.157 270.500 C 140.604 267.458, 138.288 265.317, 130.042 260.227 C 125.894 257.667, 122.275 255.331, 122 255.036 C 121.134 254.108, 112 250, 110.802 250 C 110.173 250, 108.947 249.376, 108.079 248.614 C 106.231 246.991, 95.088 241, 93.918 241 C 93.478 241, 92.809 241.500, 92.431 242.112 M 72.976 244.750 C 72.963 245.162, 72.553 247.218, 72.066 249.318 L 71.180 253.137 77.200 257.568 C 80.511 260.006, 83.651 262, 84.177 262 C 84.703 262, 83.476 258.962, 81.450 255.250 C 79.424 251.537, 77.256 247.491, 76.633 246.258 C 75.569 244.151, 73.029 243.104, 72.976 244.750 M 69.436 259.750 C 69.104 261.262, 68.659 263.065, 68.446 263.755 C 67.608 266.474, 65.051 289.891, 64.881 296.404 C 64.706 303.119, 64.795 303.386, 68.101 306.160 C 72.786 310.092, 87.592 320, 88.782 320 C 89.317 320, 90.315 320.675, 91 321.500 C 91.685 322.325, 93.255 323, 94.489 323 C 96.616 323, 96.766 322.495, 97.378 313.250 C 97.733 307.887, 98.440 300.350, 98.950 296.500 C 101.404 277.957, 101.408 278.682, 98.853 276.367 C 96.554 274.284, 71.181 257, 70.422 257 C 70.211 257, 69.767 258.238, 69.436 259.750 M 142 263.932 C 142 265.047, 147.360 269, 148.873 269 C 150.274 269, 149.140 265.838, 147.169 264.250 C 145.355 262.788, 142 262.582, 142 263.932 M 330.073 276.096 C 330.002 278.625, 332.817 285.516, 333.601 284.732 C 333.817 284.516, 333.128 281.901, 332.070 278.920 C 330.652 274.924, 330.127 274.182, 330.073 276.096 M 154.729 277.604 C 154.328 278.005, 154.014 279.271, 154.030 280.417 C 154.058 282.340, 154.141 282.363, 155.101 280.712 C 156.220 278.790, 155.934 276.400, 154.729 277.604 M 43.507 286.988 C 42.659 288.360, 44.776 306.712, 46.591 313.720 C 48.328 320.428, 53.972 331.842, 58.235 337.267 C 61.266 341.125, 64.736 343.597, 65.727 342.606 C 66.033 342.300, 65.559 338.326, 64.673 333.775 C 63.787 329.224, 62.753 320.801, 62.375 315.057 L 61.687 304.614 56.073 298.557 C 52.986 295.226, 49.425 291.038, 48.161 289.250 C 45.784 285.887, 44.557 285.290, 43.507 286.988 M 283 290.441 C 283 291.298, 283.450 292, 284 292 C 284.550 292, 285 291.577, 285 291.059 C 285 290.541, 284.550 289.840, 284 289.500 C 283.450 289.160, 283 289.584, 283 290.441 M 281 294 C 281 294.550, 281.450 295, 282 295 C 282.550 295, 283 294.550, 283 294 C 283 293.450, 282.550 293, 282 293 C 281.450 293, 281 293.450, 281 294 M 419.059 301.160 C 417.162 302.927, 416.403 303.109, 414.884 302.160 C 411.701 300.172, 409.063 300.865, 405.030 304.750 L 401.138 308.500 401.822 315 C 402.460 321.065, 402.663 321.483, 404.856 321.244 C 406.148 321.103, 410.872 318.838, 415.353 316.211 C 423.119 311.659, 423.515 311.255, 423.820 307.563 C 424.179 303.214, 423.366 299, 422.170 299 C 421.734 299, 420.334 299.972, 419.059 301.160 M 65.018 311.750 C 65.058 319.949, 69.830 345.007, 72.279 349.878 C 73.446 352.199, 97.714 369, 99.899 369 C 101.221 369, 101.225 368.686, 99.974 363.267 C 98.339 356.180, 97.091 345.900, 96.907 338 C 96.675 328.057, 95.955 326.518, 90.173 323.588 C 87.476 322.221, 80.890 318.155, 75.539 314.551 C 70.187 310.948, 65.626 308, 65.404 308 C 65.182 308, 65.008 309.688, 65.018 311.750 M 347.655 312.829 C 346.745 313.835, 346 315.718, 346 317.015 C 346 325.434, 336.927 347.786, 330.470 355.275 C 327.237 359.024, 326.879 359.978, 327.290 363.744 C 327.547 366.099, 328.847 369.436, 330.211 371.244 C 331.564 373.035, 332.951 375.625, 333.295 377 L 333.920 379.500 332.080 377.083 L 330.240 374.666 327.485 376.833 C 325.852 378.117, 323.306 379, 321.233 379 C 314.061 379, 307.883 385.761, 307.447 394.088 C 307.343 396.061, 306.579 398.761, 305.747 400.088 C 304.916 401.415, 303.949 405.820, 303.599 409.879 L 302.962 417.258 306.231 416.571 C 308.029 416.193, 312.883 415.275, 317.018 414.530 C 321.152 413.785, 327.227 412.492, 330.518 411.656 C 333.808 410.821, 338.610 409.835, 341.190 409.464 C 343.769 409.094, 346.533 408.051, 347.333 407.146 C 348.134 406.239, 349.111 402.180, 349.509 398.104 L 350.232 390.707 345.866 391.399 C 343.465 391.780, 336.181 393.421, 329.681 395.046 C 323.180 396.671, 316.902 398, 315.731 398 C 311.820 398, 315.312 396.200, 323.500 393.994 C 346.078 387.914, 345.316 388.016, 368.221 388.008 L 389.943 388 390.844 384.750 C 391.611 381.987, 391.257 380.600, 388.482 375.500 C 383.243 365.870, 368.819 336.960, 368.612 335.675 C 368.508 335.029, 367.177 331.800, 365.656 328.500 C 358.827 313.690, 356.735 311, 352.044 311 C 350.540 311, 348.565 311.823, 347.655 312.829 M 394.643 312.710 C 393.622 312.973, 390.172 314.720, 386.975 316.594 C 382.349 319.305, 380.076 320.003, 375.832 320.015 C 372.899 320.024, 369.825 320.467, 369 321 C 368.048 321.615, 367.946 321.975, 368.721 321.985 C 369.392 321.993, 372.092 324.017, 374.721 326.483 C 378.915 330.417, 380.054 330.968, 384.020 330.983 C 387.046 330.994, 390.350 330.066, 394.020 328.174 C 399.357 325.422, 399.508 325.227, 399.803 320.708 C 400.092 316.297, 398.757 311.866, 397.215 312.116 C 396.822 312.180, 395.665 312.447, 394.643 312.710 M 362.647 317.750 C 362.934 318.846, 364.207 319.578, 366.053 319.710 C 369.936 319.986, 369.819 318.481, 365.851 317.098 C 361.902 315.721, 362.103 315.680, 362.647 317.750 M 412.553 321.550 C 408.732 323.979, 405.023 326.548, 404.311 327.260 C 403.528 328.043, 402.629 333.284, 402.034 340.527 C 401.494 347.112, 400.590 354.924, 400.026 357.886 C 398.446 366.180, 398.607 367.315, 401.265 366.648 C 405.215 365.657, 422.681 353.679, 424.901 350.439 C 427.453 346.715, 430.200 333.359, 429.358 328.771 C 429.028 326.972, 427.668 323.587, 426.337 321.250 C 423.242 315.818, 421.512 315.856, 412.553 321.550 M 349.070 331.178 C 348.990 334.245, 340.268 351.577, 336.117 356.920 C 334.587 358.889, 333.024 361.038, 332.642 361.696 C 332.261 362.353, 334.298 367.416, 337.168 372.946 L 342.386 383 352.943 382.926 C 362.148 382.861, 375.174 381.537, 371 381.090 C 370.017 380.985, 370.362 380.436, 372 379.500 C 373.908 378.409, 374.086 378.062, 372.750 378.035 C 370.822 377.996, 370.812 377.974, 370.550 373.061 C 370.449 371.170, 369.859 369.453, 369.239 369.246 C 368.619 369.040, 368.382 368.169, 368.711 367.312 C 369.053 366.419, 368.627 365.371, 367.713 364.859 C 366.814 364.356, 365.815 361.947, 365.423 359.336 C 365.041 356.790, 364.118 353.535, 363.371 352.103 C 362.624 350.671, 362.010 348.739, 362.006 347.809 C 362.003 346.879, 361.532 345.829, 360.959 345.475 C 360.387 345.121, 360.210 343.913, 360.566 342.791 C 360.998 341.430, 360.845 340.978, 360.107 341.434 C 359.464 341.831, 359 341.409, 359 340.426 C 359 339.496, 358.117 337.969, 357.038 337.033 C 355.959 336.098, 354.621 334.132, 354.063 332.666 C 353.019 329.921, 351.054 329.033, 350.930 331.250 C 350.891 331.938, 350.473 331.600, 350 330.500 C 349.231 328.711, 349.133 328.783, 349.070 331.178 M 395 330.317 C 388.629 333.643, 383 337.268, 383 338.045 C 383 338.516, 383.595 339.260, 384.321 339.700 C 386.153 340.809, 389.698 348.561, 390.940 354.176 C 392.142 359.604, 393.993 364, 395.078 364 C 396.626 364, 399.912 344.015, 399.969 334.250 C 400.002 328.581, 399.337 328.054, 395 330.317 M 58 341.498 C 58 343.874, 70.943 365.893, 72.379 365.959 C 73.704 366.021, 72.099 355.836, 70.363 353.168 C 66.777 347.655, 58 339.370, 58 341.498 M 411.405 363.943 C 403.365 369.313, 402.397 370.175, 401.605 372.669 C 400.624 375.760, 401.887 379.829, 404.038 380.512 C 406.274 381.222, 414.686 377.097, 417.626 373.849 C 421.217 369.883, 421.903 360, 418.588 360 C 417.885 360, 414.653 361.775, 411.405 363.943 M 319.446 369.087 C 319.077 369.685, 319.227 370.627, 319.781 371.181 C 321.258 372.658, 324.425 371.750, 324.812 369.739 C 325.058 368.459, 324.482 368, 322.632 368 C 321.249 368, 319.816 368.489, 319.446 369.087 M 378 370.941 C 378 371.459, 378.445 372.157, 378.989 372.493 C 379.555 372.843, 379.723 372.442, 379.382 371.552 C 378.717 369.820, 378 369.503, 378 370.941 M 85 381.505 C 85 384.107, 97.718 396.194, 104.804 400.325 C 112.154 404.610, 113.386 404.839, 112.462 401.750 C 110.838 396.314, 108.146 393.446, 100.482 388.987 C 96.092 386.433, 90.813 383.321, 88.750 382.073 C 85.441 380.069, 85 380.003, 85 381.505 M 290.220 382.248 C 287.315 383.361, 285.065 384.376, 285.220 384.504 C 285.374 384.631, 287.148 385.032, 289.161 385.396 C 292.447 385.990, 293.044 385.746, 294.980 383.029 C 297.457 379.549, 297.319 379.526, 290.220 382.248 M 354.581 391.317 C 352.260 393.014, 350.606 406, 352.711 406 C 355.328 406, 368.232 402.040, 373.553 399.604 C 377.901 397.614, 379 396.636, 379 394.755 C 379 393.460, 378.460 391.860, 377.800 391.200 C 376.082 389.482, 356.959 389.578, 354.581 391.317 M 113 397.540 C 113 400.987, 121.422 410.996, 124.327 411.003 C 124.972 411.004, 130.998 413.254, 137.718 416.003 C 144.438 418.751, 150.625 421, 151.468 421 C 153.488 421, 153.373 418.417, 151.131 413.483 C 149.334 409.528, 149.108 409.400, 136.403 405.185 C 129.306 402.830, 121.700 400.040, 119.500 398.986 C 115.513 397.074, 113 396.515, 113 397.540 M 378.909 400.519 C 378.074 401.355, 372.240 403.325, 365.945 404.897 C 348.425 409.273, 349.085 408.849, 347.495 416.750 C 347.009 419.165, 347.196 420, 348.224 420 C 349.450 420, 362.402 415.723, 373.457 411.667 C 378.030 409.989, 384 403.958, 384 401.015 C 384 398.590, 381.119 398.310, 378.909 400.519 M 101.593 402.145 C 103.099 404.681, 119.349 419, 120.722 419 C 122.450 419, 122.358 418.521, 119.750 413.967 C 118.336 411.497, 115.829 409.156, 113 407.665 C 110.525 406.361, 106.742 404.241, 104.593 402.955 C 101.964 401.382, 100.983 401.117, 101.593 402.145 M 282.690 401.745 L 273.880 402.080 268.940 409.790 C 266.223 414.030, 264 418.063, 264 418.750 C 264 421.036, 284.340 420.235, 298.250 417.401 C 300.971 416.847, 301 416.759, 301 408.921 L 301 401 296.250 401.206 C 293.637 401.319, 287.536 401.562, 282.690 401.745 M 390.238 404.111 C 385.538 406.438, 379.791 412.539, 376.114 419.107 L 373.728 423.368 376.866 421.382 C 381.630 418.366, 397.845 403.604, 397.332 402.750 C 396.596 401.524, 394.748 401.879, 390.238 404.111 M 154.750 404.793 C 151.665 405.174, 151.281 406.159, 153.500 408 C 154.573 408.890, 155.366 408.941, 156.284 408.180 C 157.097 407.504, 158.104 407.454, 159.034 408.042 C 160.852 409.192, 164 409.283, 164 408.185 C 164 406.776, 157.623 404.437, 154.750 404.793 M 153.522 413.750 C 153.926 414.712, 154.479 416.523, 154.749 417.773 C 155.382 420.691, 159.585 424, 162.660 424 C 165.297 424, 167.220 420.559, 166.380 417.344 C 165.700 414.745, 160.529 412, 156.312 412 C 153.340 412, 152.902 412.275, 153.522 413.750 M 336.500 413.076 C 331.608 414.551, 314.945 417.844, 308.722 418.567 C 302.339 419.308, 301.656 419.998, 300.625 426.750 C 300.084 430.298, 300.249 431, 301.630 431 C 305.447 431, 339.676 423.693, 341.622 422.463 C 342.789 421.726, 343.990 420.082, 344.291 418.811 C 344.592 417.540, 345.152 415.488, 345.536 414.250 C 346.167 412.215, 345.912 412.008, 342.867 412.086 C 341.015 412.133, 338.150 412.579, 336.500 413.076 M 123.060 415.112 C 126.410 421.372, 139.396 432.645, 148.649 437.327 C 153.895 439.980, 163.891 443.999, 165.250 443.999 C 166.768 444.001, 165.933 440.778, 163.614 437.683 C 162.302 435.932, 160.276 432.603, 159.111 430.283 C 156.658 425.398, 156.212 425.114, 144.780 421.153 C 140.050 419.514, 134.228 417.311, 131.840 416.256 C 129.453 415.201, 126.239 414.023, 124.698 413.637 C 122.062 412.977, 121.964 413.065, 123.060 415.112 M 371 413.971 C 369.625 414.411, 366.250 415.771, 363.500 416.994 C 360.750 418.217, 355.751 420.018, 352.392 420.997 C 344.362 423.338, 342.270 424.536, 341.480 427.249 C 341.119 428.487, 338.765 432.538, 336.247 436.252 C 333.730 439.966, 331.949 443.283, 332.290 443.623 C 333.337 444.671, 351.474 437.140, 357.889 432.993 C 365.506 428.070, 373.378 420.223, 374.804 416.131 C 375.995 412.717, 375.608 412.498, 371 413.971 M 279 422.036 C 275.425 422.437, 268.374 422.819, 263.332 422.883 C 251.232 423.037, 251 423.153, 251 429.048 C 251 431.707, 251.405 434.132, 251.900 434.438 C 252.995 435.115, 294.782 432.253, 296.151 431.407 C 297.203 430.757, 298.319 428.103, 299.373 423.750 L 300.038 421 292.769 421.152 C 288.771 421.236, 282.575 421.634, 279 422.036 M 242.017 426.286 C 240.651 426.977, 239.092 428.797, 238.553 430.330 C 237.332 433.803, 238.971 435.136, 244 434.761 C 247.294 434.515, 247.519 434.270, 247.819 430.602 C 248.019 428.159, 247.646 426.391, 246.819 425.867 C 245.113 424.785, 244.956 424.799, 242.017 426.286 M 161 427.346 C 161 429.291, 163.780 434.572, 165.597 436.080 C 166.877 437.143, 167.313 437.117, 168.061 435.936 C 168.561 435.146, 168.976 433.908, 168.985 433.184 C 169.004 431.484, 167.014 427.710, 165.600 426.765 C 163.786 425.554, 161 425.905, 161 427.346 M 325 428.977 C 320.875 429.942, 313.225 431.497, 308 432.432 L 298.500 434.133 295.376 443.530 L 292.252 452.927 296.876 452.360 C 305.611 451.289, 320.106 448.043, 323.636 446.368 C 325.580 445.446, 328.208 443.074, 329.477 441.096 C 330.746 439.118, 332.624 436.600, 333.650 435.500 C 335.692 433.311, 339 428.386, 339 427.535 C 339 426.545, 332.557 427.209, 325 428.977 M 287.732 435.037 C 282.675 435.888, 266.361 436.901, 256.712 436.963 L 250.925 437 251.212 446.250 L 251.500 455.500 264 455.243 C 270.875 455.102, 279.452 454.513, 283.061 453.935 L 289.622 452.883 292.811 444.071 C 294.565 439.224, 296 434.976, 296 434.629 C 296 433.874, 294.082 433.969, 287.732 435.037 M 227.202 439.484 C 225.578 440.850, 221.970 442.456, 219.183 443.054 C 215.637 443.815, 214.271 444.543, 214.631 445.480 C 215.352 447.361, 211.835 448.248, 206.706 447.479 C 203.419 446.986, 202.074 447.206, 201.084 448.399 C 199.585 450.205, 200.900 450.901, 209.500 452.855 C 214.919 454.087, 244.974 456.134, 246.231 455.357 C 246.654 455.096, 247 451.136, 247 446.558 C 247 436.948, 247.100 437.037, 236.327 437.014 C 231.200 437.002, 229.653 437.421, 227.202 439.484 M 306 452.653 C 301.325 453.443, 294.350 454.725, 290.500 455.504 C 283.088 457.002, 263.283 459, 255.838 459 C 253.397 459, 250.911 459.489, 250.313 460.087 C 249.530 460.870, 249.038 460.870, 248.554 460.087 C 248.184 459.489, 245.321 458.973, 242.191 458.940 C 239.061 458.908, 234.250 458.467, 231.500 457.962 C 219.357 455.730, 217 455.628, 217 457.333 C 217 458.430, 218.834 459.487, 222.750 460.647 C 227.387 462.021, 232.661 462.350, 250 462.347 C 263.156 462.345, 273.829 461.865, 277.500 461.108 C 280.800 460.428, 285.300 459.651, 287.500 459.381 C 295.761 458.365, 317 452.595, 317 451.365 C 317 450.861, 315.741 451.008, 306 452.653 M 199.152 454.521 C 199.589 456.758, 206.309 459.179, 211 458.790 L 214.500 458.500 210.453 456.333 C 208.228 455.142, 204.696 453.846, 202.605 453.454 C 199.293 452.832, 198.848 452.970, 199.152 454.521" stroke="none" fill="#f39a12" fill-rule="evenodd"/>
</svg>